<svg id="Capa_1" enable-background="new 0 0 512 512" height="512" viewBox="0 0 512 512" width="512" xmlns="http://www.w3.org/2000/svg"><g><path d="m406.1 335.156c-125.479 0-227.564-102.194-227.564-227.807 0-26.615 4.539-52.678 13.491-77.466l10.677-29.563-29.666 10.308c-103.499 35.964-173.038 133.854-173.038 243.59 0 68.856 26.785 133.591 75.422 182.28 48.637 48.688 113.302 75.502 182.085 75.502 53.997 0 105.69-16.551 149.493-47.864 42.846-30.63 74.914-72.907 92.739-122.261l10.677-29.563-29.667 10.309c-23.94 8.317-49.056 12.535-74.649 12.535z"/><path d="m307.197 240.466 78.099-41.427 78.21 41.04-14.798-87.843 63.292-61.9-87.744-12.551-38.948-77.785-39.252 77.813-87.526 12.849 63.496 61.813z"/></g></svg>